<svg xmlns="http://www.w3.org/2000/svg" width="80.66" height="108.07" viewBox="0 0 80.66 108.07">
  <g id="Group_14" data-name="Group 14" transform="translate(-92.348 -84.935)">
    <path id="Path_1" data-name="Path 1" d="M168.648,172.685c.84-1.86,2.519-2.432,4.2-3.291a1.319,1.319,0,0,0-.763-1.5,8.193,8.193,0,0,0-1.908-.429c-2.366-.5-4.046-2.5-5.5-4.364-.84-1.073-1.679-2.075-2.519-3.148a6.231,6.231,0,0,1-1.527-2.861c-.458-3.791,4.351-6.367-.153-9.371a1.94,1.94,0,0,1-.382-2.289c.382-.787.992-1.359,1.374-2.146.992-2.289-.763-4.936,0-7.368.382-1.145,1.3-2.075,1.45-3.219.229-1.788-1.3-3.362-2.977-4.292-.763-.429-1.679-.93-1.679-1.788,0-1,1.3-1.645,1.374-2.575a5.2,5.2,0,0,0-.458-1.431c-1.221-2.861,3.664-7.583,0-9.586-.84-.5-1.985-.5-2.748-1.145a3.457,3.457,0,0,1-.916-3.076,24.1,24.1,0,0,1,.84-5.222,11.99,11.99,0,0,0,.611-2.861,2.988,2.988,0,0,0-1.145-2.575c-.763-.5-1.756-.644-2.214-1.431-.382-.572-.305-1.288-.611-1.788-.687-1-2.443-.644-3.359-1.5s-.382-2.361.382-3.434c.687-1.073,1.45-2.361.763-3.434a8.87,8.87,0,0,0-9.008-.715c-.687.358-1.3.787-1.985,1.145a12.321,12.321,0,0,1-5.115.715c-7.786.072-15.649.072-23.435.143a61.463,61.463,0,0,1-7.252-.286A4.841,4.841,0,0,0,99.105,89.2a7.548,7.548,0,0,0-1.145,6.367,47.255,47.255,0,0,0,2.137,6.3,29.546,29.546,0,0,1,.916,16.668c-.229,1.145-.611,2.361-.153,3.434a8.316,8.316,0,0,0,1.3,1.86,10.972,10.972,0,0,1,1.756,10.444c-1.221,3.648-5.038,5.723-6.412,9.443-1.069,2.861-1.221,5.938-2.519,8.727-.611,1.216-1.45,2.432-1.908,3.648-1.45,3.577-.458,7.511.611,11.231.534,2,1.145,3.934,1.679,5.938a7.547,7.547,0,0,0,1.832,3.72c.611.572,1.374.93,1.985,1.5,1.756,1.717,1.527,4.65,1.679,6.8,0-.358-3.053.572-3.359.644-1.3.5-2.137.5-2.137,1.86,4.733.787,9.466,1.574,13.664,3.648,1.45.715,2.9,1.645,4.58,1.574,1.756-.072,3.206-1.145,4.657-2.146a42.026,42.026,0,0,1,11.527-5.437,15.151,15.151,0,0,1,3.588-.715c.763-.072,1.45,0,2.214-.143,2.137-.286,3.893-1.717,5.649-2.933,6.183-4.364,13.817-7.154,21.527-6.581,1.985.143,4.351.358,5.42-1.216C168.266,173.758,168.419,173.186,168.648,172.685Z" transform="translate(0 0)" fill="#39b54a"/>
    <path id="Path_2" data-name="Path 2" d="M184.59,167.892a8.193,8.193,0,0,0-1.908-.429c-2.366-.5-4.046-2.5-5.5-4.364-.84-1.073-1.679-2.075-2.519-3.148a6.231,6.231,0,0,1-1.527-2.861c-.458-3.791,4.351-6.367-.153-9.371a1.94,1.94,0,0,1-.382-2.289c.382-.787.992-1.359,1.374-2.146.992-2.289-.763-4.936,0-7.368.382-1.145,1.3-2.075,1.45-3.219.229-1.788-1.3-3.362-2.977-4.292-.763-.429-1.679-.93-1.679-1.788,0-1,1.3-1.645,1.374-2.575a5.2,5.2,0,0,0-.458-1.431c-1.221-2.861,3.664-7.583,0-9.586-.84-.5-1.985-.5-2.748-1.145a3.457,3.457,0,0,1-.916-3.076,24.092,24.092,0,0,1,.84-5.222,11.989,11.989,0,0,0,.611-2.861,2.988,2.988,0,0,0-1.145-2.575c-.763-.5-1.756-.644-2.214-1.431-.382-.572-.305-1.288-.611-1.788-.687-1-2.443-.644-3.359-1.5s-.382-2.361.382-3.434,1.45-2.361.763-3.434a8.87,8.87,0,0,0-9.008-.715c-.687.358-1.3.787-1.985,1.145a12.321,12.321,0,0,1-5.115.715H145.2v97.146c.229,0,.382-.072.611-.072.763-.072,1.45,0,2.214-.143,2.137-.286,3.893-1.717,5.649-2.933,6.183-4.364,13.817-7.154,21.527-6.581,1.985.143,4.351.358,5.42-1.216a9.185,9.185,0,0,0,.687-1.5c.84-1.86,2.519-2.432,4.2-3.291C185.582,168.822,185.124,168.178,184.59,167.892Z" transform="translate(-12.507 0)" fill="#009444"/>
  </g>
</svg>
